# xmcd
#
# Track frame offsets: 
#        150
#        23263
#        36677
#        50096
#        64616
#        79754
#        90249
#        108301
#        118012
#        139899
#        163817
#        177132
#        193394
#        208242
#        220081
#        233675
#        246693
#        259369
#        272689
#        287073
#        300997
#
# Disc length: 4193 seconds
#
# Revision: 0
# Processed by: cddbd v1.5.2PL0 Copyright (c) Steve Scherf et al.
# Submitted via: ExactAudioCopy v1.3
#
DISCID=39105f15
DTITLE=Big Bill Broonzy - Seven Classic Albums Disc 3
DYEAR=2015
DGENRE=Blues, Folk
TTITLE0=In The Evening
TTITLE1=When Things Go Wrong
TTITLE2=Diggin' My Potatoes
TTITLE3=Poor Bill Blues
TTITLE4=Trouble In Mind
TTITLE5=I Wonder When I'll Be Called A Man
TTITLE6=Louise, Louise
TTITLE7=Frankie and Johnny
TTITLE8=Southbound Ttrain
TTITLE9=Joe Turner No 2
TTITLE10=Hey, Hey
TTITLE11=Saturday Evening Blues
TTITLE12=Walkin' The Lonesome Road
TTITLE13=Mapper's Blues
TTITLE14=Get Back
TTITLE15=Hey, Hey
TTITLE16=Willie Mae
TTITLE17=Stump Blues
TTITLE18=I Know She Will
TTITLE19=Hollerin' Blues
TTITLE20=Leavin' Day
EXTD=
EXTT0=
EXTT1=
EXTT2=
EXTT3=
EXTT4=
EXTT5=
EXTT6=
EXTT7=
EXTT8=
EXTT9=
EXTT10=
EXTT11=
EXTT12=
EXTT13=
EXTT14=
EXTT15=
EXTT16=
EXTT17=
EXTT18=
EXTT19=
EXTT20=
PLAYORDER=
